<?xml version="1.0" encoding="UTF-8" standalone="no"?>
<svg
   xmlns:dc="http://purl.org/dc/elements/1.1/"
   xmlns:cc="http://creativecommons.org/ns#"
   xmlns:rdf="http://www.w3.org/1999/02/22-rdf-syntax-ns#"
   xmlns:svg="http://www.w3.org/2000/svg"
   xmlns="http://www.w3.org/2000/svg"
   xmlns:sodipodi="http://sodipodi.sourceforge.net/DTD/sodipodi-0.dtd"
   xmlns:inkscape="http://www.inkscape.org/namespaces/inkscape"
   width="31.97678"
   height="32.055069"
   version="1.1"
   viewBox="0 0 31.97678 32.055069"
   id="svg2687"
   sodipodi:docname="shortcut.svg"
   inkscape:version="1.0.2-2 (e86c870879, 2021-01-15)">
  <metadata
     id="metadata2693">
    <rdf:RDF>
      <cc:Work
         rdf:about="">
        <dc:format>image/svg+xml</dc:format>
        <dc:type
           rdf:resource="http://purl.org/dc/dcmitype/StillImage" />
        <dc:title></dc:title>
      </cc:Work>
    </rdf:RDF>
  </metadata>
  <defs
     id="defs2691" />
  <sodipodi:namedview
     pagecolor="#ffffff"
     bordercolor="#666666"
     borderopacity="1"
     objecttolerance="10"
     gridtolerance="10"
     guidetolerance="10"
     inkscape:pageopacity="0"
     inkscape:pageshadow="2"
     inkscape:window-width="1920"
     inkscape:window-height="1027"
     id="namedview2689"
     showgrid="false"
     inkscape:snap-others="false"
     inkscape:zoom="5.6568543"
     inkscape:cx="-0.72873326"
     inkscape:cy="39.313837"
     inkscape:window-x="-8"
     inkscape:window-y="-8"
     inkscape:window-maximized="1"
     inkscape:current-layer="svg2687"
     inkscape:snap-midpoints="true"
     inkscape:snap-smooth-nodes="true" />
  <rect
     transform="scale(-1)"
     x="428.91855"
     y="266.94229"
     width="24"
     height="24"
     opacity="0"
     id="rect2671" />
  <rect
     style="fill:#166a16;fill-opacity:0;stroke:none;stroke-width:1.126;stroke-linejoin:round;stroke-opacity:1"
     id="rect5737"
     width="47.375"
     height="15.125"
     x="-0.45439991"
     y="16.052139"
     ry="1.17188" />
  <path
     class="logo-first"
     d="m 20.9971,11.43834 c 1.6781,1.5193 2.4051,3.1052 2.616,3.5386 0.21079,0.43336 -0.10712,0.83048 -0.38,1.0752 -0.27308,0.24468 -10.575,5.1563 -11.078,5.3606 -0.50232,0.20408 -1.1999,0.36211 -0.85572,-0.61182 0.34427,-0.97413 3.81,-10.514 4.1588,-11.32 0.34908,-0.80591 0.91702,-0.87948 1.3285,-0.73405 0.41148,0.14542 2.532,1.172 4.2102,2.6915 z"
     id="path5922"
     style="fill:#095292;fill-opacity:1" />
  <path
     class="logo-box"
     d="M 4.2031,4e-5 C 1.875,4e-5 0,1.87814 0,4.21094 v 25.268 c 0,0.74895 0.19579995,1.4485 0.53515995,2.0566 l 0.01172,-0.01172 c 0.42332,0.40986 1.28719995,0.53125 2.03130005,0.53125 h 25.213 c 1.1883,0 2.2432,-0.50343 3.0059,-1.293 l 0.0098,0.0098 c 0.71704,-0.75466 1.1699,-1.7654 1.1699,-2.8945 v -9.9238 h -4.9766 v 9.0039 l 0.002,0.0039 H 5.1001799 V 5.23437 H 7.62948 C 7.7793999,5.21063 7.92973,5.1875 8.08651,5.1875 h 7.6562 V 0 h -11.539 z"
     id="path5924"
     style="fill:#3a9ef4;fill-opacity:1" />
</svg>
